PathFileType	4	(X/Y/Z)	E:\Qualisys_Data\Carbon_Farble_Plate\Data\Amateur_Runner\S1\T3\S1T3V13_c3d.trc
DataRate	CameraRate	NumFrames	NumMarkers	Units	OrigDataRate	OrigDataStartFrame	OrigNumFrames
200.000000	200.000000	4	39	mm	200.000000	278	318
Frame#	Time	LSHO			RSHO			LICST			RICST			LASIS			LHEEL			RASIS			LTROC			RTROC			SACR			LTH1			LSK4			LTH2			LTH3			RHM5			LSK2			LTH4			RTH1			LTOE			RTH2			RTH3			RTH4			LLEP			RLEP			LSK1			LSK3			RSK1			LHM5			RSK2			LFT1			RSK3			RSK4			LLME			RLME			RTOE			RHEEL			RFT1			RFT2			LFT2			
		X1	Y1	Z1	X2	Y2	Z2	X3	Y3	Z3	X4	Y4	Z4	X5	Y5	Z5	X6	Y6	Z6	X7	Y7	Z7	X8	Y8	Z8	X9	Y9	Z9	X10	Y10	Z10	X11	Y11	Z11	X12	Y12	Z12	X13	Y13	Z13	X14	Y14	Z14	X15	Y15	Z15	X16	Y16	Z16	X17	Y17	Z17	X18	Y18	Z18	X19	Y19	Z19	X20	Y20	Z20	X21	Y21	Z21	X22	Y22	Z22	X23	Y23	Z23	X24	Y24	Z24	X25	Y25	Z25	X26	Y26	Z26	X27	Y27	Z27	X28	Y28	Z28	X29	Y29	Z29	X30	Y30	Z30	X31	Y31	Z31	X32	Y32	Z32	X33	Y33	Z33	X34	Y34	Z34	X35	Y35	Z35	X36	Y36	Z36	X37	Y37	Z37	X38	Y38	Z38	X39	Y39	Z39	

279	1.39	2232.417724609375	1493.81103515625	-603.9075317382812	2164.49755859375	1503.162841796875	-281.4435424804688	2173.39599609375	1030.640380859375	-572.665771484375	2171.127197265625	1054.8779296875	-272.6314697265625	2219.1494140625	991.994873046875	-546.517578125	1756.415771484375	160.7978057861328	-463.8547973632812	2208.849853515625	1007.080932617188	-282.1763916015625	2098.61669921875	916.4708251953124	-586.4611206054688	2115.47412109375	912.4253540039062	-246.1773071289062	2053.749755859375	1058.467407226562	-419.5580139160156	2201.870849609375	747.1710815429688	-554.5789184570312	1867.661865234375	300.0928039550781	-498.0350341796875	2123.155517578125	752.52001953125	-586.5051879882812	2184.419677734375	645.9969482421875	-535.2218017578125	2206.70166015625	140.7075347900391	-274.9608459472656	1929.231323242188	372.4411315917969	-537.9783935546875	2102.835205078125	657.3449096679688	-560.4940795898438	2287.28759765625	846.88623046875	-274.4775390625	1980.501831054688	53.66995239257812	-470.5089111328125	2224.726806640625	804.8265991210938	-243.4637451171875	2342.455810546875	760.9574584960938	-277.2823486328125	2274.9619140625	718.9794311523438	-255.3527679443359	2101.536376953125	504.5801086425781	-520.7745971679688	2368.834228515625	582.59521484375	-295.0812377929688	1992.034790039062	317.0218811035156	-524.219482421875	1924.096557617188	245.7996520996094	-517.0936279296875	2271.438720703125	424.4135437011719	-279.9049987792969	1907.533569335938	62.9599494934082	-532.7495727539062	2206.434326171875	470.6321105957031	-298.87646484375	1755.119873046875	131.9607086181641	-433.8917541503906	2216.762939453125	341.1924133300781	-292.5894165039062	2153.87646484375	386.0436096191406	-318.74169921875	1826.889404296875	173.6337280273438	-511.7022094726562	2115.606689453125	253.4689483642578	-295.6483154296875	2263.6865234375	126.6006698608398	-342.7540283203125	2041.261962890625	243.6229553222656	-341.7278442382812	2038.860473632812	213.3044891357422	-371.0323791503906	2030.311767578125	219.8459625244141	-320.5652160644531	1748.123901367188	129.5287933349609	-484.3961181640625
280	1.395	2249.045654296875	1498.564331054688	-602.69775390625	2178.026123046875	1507.608764648438	-280.9470825195312	2190.655029296875	1034.406494140625	-571.3758544921875	2187.220703125	1059.046752929688	-272.7316284179688	2235.62158203125	995.0946044921876	-545.3035888671875	1762.363525390625	167.8781280517578	-464.5994262695312	2225.522705078125	1012.012878417969	-281.7223815917969	2115.349365234375	919.8548583984376	-585.5652465820312	2132.776123046875	917.690185546875	-245.1152801513672	2070.925048828125	1062.5771484375	-419.5686340332031	2215.349853515625	749.6511840820312	-554.0645751953125	1874.712036132812	305.8681335449219	-498.6763916015625	2136.867919921875	756.7182006835938	-585.8849487304688	2195.590087890625	648.286376953125	-534.798828125	2241.75439453125	137.1567230224609	-275.0674133300781	1937.213012695312	378.3656616210938	-538.6326904296875	2114.56396484375	661.458740234375	-560.4131469726562	2304.703125	852.1476440429688	-274.5755920410156	1982.112548828125	53.97434997558594	-471.1949462890625	2242.9326171875	810.3394165039062	-243.5179138183594	2360.53173828125	766.4381103515625	-277.244873046875	2292.841064453125	724.3206787109375	-255.4746398925781	2110.57373046875	509.2699584960938	-520.8401489257812	2386.397216796875	587.5955810546875	-294.5576782226562	2001.115600585938	324.6227111816406	-524.3602294921875	1931.553100585938	251.4515686035156	-518.8482055664062	2295.324951171875	424.8965454101562	-279.5186462402344	1909.327026367188	64.27169036865234	-533.2421264648438	2228.015380859375	467.9504089355469	-298.2572326660156	1760.32470703125	139.22607421875	-434.5479125976562	2243.398681640625	338.8100280761719	-292.4669494628906	2178.73779296875	381.6961975097656	-318.3690795898438	1833.167724609375	179.3154296875	-512.6080322265625	2146.68994140625	246.5653228759766	-295.2205505371094	2299.76611328125	126.5231857299805	-342.7889099121094	2072.876953125	233.1876220703125	-341.6769104003906	2071.074951171875	203.4380187988281	-370.2781677246094	2062.81591796875	209.2164306640625	-320.4361572265625	1752.810913085938	136.1906585693359	-484.788818359375
281	1.4	2265.5146484375	1504.036987304688	-601.18896484375	2192.468994140625	1511.4140625	-280.4484252929688	2209.001220703125	1036.89892578125	-570.51416015625	2203.59375	1063.722045898438	-272.2770080566406	2255.379150390625	999.0256958007812	-545.3426513671875	1769.671264648438	175.9771575927734	-465.7047729492188	2242.615478515625	1016.658142089844	-280.6432495117188	2131.979736328125	923.7308959960938	-584.7756958007812	2149.69970703125	922.5226440429688	-244.3519134521484	2088.473876953125	1066.749389648438	-418.7857971191406	2228.99267578125	752.3224487304688	-552.8033447265625	1882.738403320312	311.7710876464844	-499.2415771484375	2150.6826171875	760.8246459960938	-585.20556640625	2207.4765625	651.7432250976562	-534.4514770507812	2277.614501953125	135.0660552978516	-274.6655883789062	1945.06298828125	384.6935119628906	-539.5247192382812	2126.898193359375	665.9620361328125	-559.5245971679688	2322.342041015625	857.2415161132812	-274.6470947265625	1983.947387695312	53.66572189331055	-471.8588256835938	2261.00439453125	815.375	-243.2221832275391	2378.184814453125	771.5814208984375	-277.3778381347656	2310.503173828125	729.5126342773438	-255.6062774658203	2119.73388671875	513.8458251953125	-520.3360595703125	2404.0009765625	592.0286254882812	-294.6880493164062	2008.720581054688	330.8372802734375	-525.63720703125	1938.69287109375	257.3982543945312	-520.1875610351562	2318.174072265625	424.3820495605469	-278.988525390625	1911.863891601562	65.89008331298828	-533.6895141601562	2249.805419921875	464.7762451171875	-297.5912475585938	1766.87841796875	147.2402038574219	-435.437255859375	2270.21044921875	336.4505310058594	-291.6497192382812	2204.145263671875	376.6114501953125	-317.99609375	1840.2314453125	185.1715087890625	-513.7880859375	2177.59814453125	239.4482727050781	-295.1478881835938	2335.761474609375	126.2744140625	-342.5137634277344	2104.244140625	223.5852203369141	-341.1395874023438	2104.455078125	193.8151550292969	-371.0458984375	2095.841064453125	198.7324523925781	-320.1791381835938	1759.078735351562	144.7857208251953	-486.3175048828125
282	1.405	2281.672607421875	1508.394897460938	-599.7217407226562	2207.075439453125	1515.359741210938	-279.8751831054688	2223.518310546875	1040.151000976562	-570.27783203125	2220.56591796875	1068.350219726562	-271.94921875	2272.581787109375	1001.966979980469	-544.5957641601562	1778.169067382812	184.7124938964844	-467.1279296875	2259.26904296875	1021.070678710938	-280.5990600585938	2148.780517578125	927.4207153320312	-584.0303344726562	2166.691650390625	927.2423095703124	-243.1331787109375	2105.546142578125	1070.508056640625	-418.9468688964844	2241.921875	754.4111328125	-551.1353149414062	1890.712768554688	317.8054809570312	-500.0096740722656	2164.512939453125	765.1347045898438	-584.7109375	2219.22021484375	654.8235473632812	-534.2701416015625	2313.17919921875	131.9926605224609	-274.5418090820312	1953.0927734375	390.4314270019531	-539.6636962890625	2138.9599609375	670.58740234375	-559.5706787109375	2339.891845703125	861.8009643554688	-274.685302734375	1985.897094726562	53.14187240600586	-472.5265808105469	2278.249755859375	820.110595703125	-243.0332336425781	2395.383544921875	776.0498657226562	-277.7241821289062	2328.61083984375	734.1931762695312	-256.6802368164062	2129.197509765625	518.5277099609375	-520.5317993164062	2420.8544921875	595.6609497070312	-294.439208984375	2017.048950195312	336.4586791992188	-526.19677734375	1946.607788085938	263.2460021972656	-521.741455078125	2341.0576171875	424.1215515136719	-278.0783081054688	1914.773681640625	67.2671890258789	-534.3759155273438	2270.50439453125	461.5476684570312	-296.781005859375	1773.591918945312	156.6404113769531	-437.0697631835938	2296.896240234375	334.494873046875	-291.5801086425781	2229.341796875	371.4409484863281	-317.4934387207031	1847.946044921875	190.7282409667969	-515.1206665039062	2208.687744140625	232.8605804443359	-294.5380554199219	2371.831787109375	126.5343780517578	-342.1378479003906	2136.2431640625	213.9928588867188	-341.0128784179688	2137.904052734375	184.0751342773438	-370.7207946777344	2128.639892578125	188.7991485595703	-320.2398071289062	1766.431884765625	154.3039855957031	-487.2673950195312
